<svg height="48pt" viewBox="0 0 48 48" width="48pt" xmlns="http://www.w3.org/2000/svg" xmlns:xlink="http://www.w3.org/1999/xlink"><linearGradient id="a" gradientUnits="userSpaceOnUse" x1="31.21602" x2="20.730258" y1="3.86394" y2="43.32693"><stop offset="0" stop-color="#1a6cff"/><stop offset="1" stop-color="#c522ff"/></linearGradient><path d="m7.491 26.466c.172 1.177-.643 2.275-1.82 2.45-1.177.175-2.272-.638-2.445-1.814-.151-1.024-.226-2.068-.226-3.102 0-5.568 2.218-10.909 6.149-14.851 3.942-3.931 9.283-6.149 14.851-6.149s10.909 2.218 14.851 6.149c3.931 3.942 6.149 9.283 6.149 14.851s-2.218 10.909-6.149 14.851c-3.942 3.931-9.283 6.149-14.851 6.149-5.492 0-10.769-2.154-14.689-5.998-.85-.833-.865-2.198-.033-3.048.833-.85 2.198-.865 3.048-.032 3.112 3.058 7.312 4.77 11.674 4.77 4.426 0 8.669-1.755 11.803-4.889s4.889-7.377 4.889-11.803-1.755-8.669-4.889-11.803-7.377-4.889-11.803-4.889-8.669 1.755-11.803 4.889-4.889 7.377-4.889 11.803c0 .829.064 1.648.183 2.466zm20.612-14.183c-.565-.19-.869-.803-.678-1.368.19-.564.803-.868 1.367-.678 3.856 1.292 7.022 4.092 8.788 7.754.262.535.04 1.179-.495 1.437-.535.259-1.182.035-1.443-.5-1.519-3.145-4.233-5.536-7.539-6.645zm-5.18-2.283c0-.594.483-1.077 1.077-1.077s1.077.483 1.077 1.077-.483 1.077-1.077 1.077-1.077-.483-1.077-1.077zm-1.693 14c0-.73.29-1.44.81-1.96s1.23-.81 1.96-.81 1.44.29 1.96.81.81 1.23.81 1.96-.29 1.44-.81 1.96-1.23.81-1.96.81-1.44-.29-1.96-.81-.81-1.23-.81-1.96zm-2 0c0-1.26.5-2.48 1.4-3.37.89-.9 2.11-1.4 3.37-1.4s2.48.5 3.37 1.4c.9.89 1.4 2.11 1.4 3.37s-.5 2.48-1.4 3.37c-.89.9-2.11 1.4-3.37 1.4s-2.48-.5-3.37-1.4c-.9-.89-1.4-2.11-1.4-3.37zm-2.31 0c0-1.88.75-3.68 2.08-5 1.32-1.33 3.12-2.08 5-2.08s3.68.75 5 2.08c1.33 1.32 2.08 3.12 2.08 5s-.75 3.68-2.08 5c-1.32 1.33-3.12 2.08-5 2.08s-3.68-.75-5-2.08c-1.33-1.32-2.08-3.12-2.08-5zm-2 0c0-2.41.96-4.72 2.66-6.42s4.01-2.66 6.42-2.66 4.72.96 6.42 2.66 2.66 4.01 2.66 6.42-.96 4.72-2.66 6.42-4.01 2.66-6.42 2.66-4.72-.96-6.42-2.66-2.66-4.01-2.66-6.42z" fill="url(#a)" fill-rule="evenodd"/></svg>